# xmcd CD database generated by RipIT
#
# Track frame offsets:
# 150
# 16568
# 37229
# 52334
# 64772
# 78918
# 95848
# 113066
# 133627
# 145587
# 168997
# 182043
# 194407
# 207451
# 222900
# 235782
# 246876
# 262342
# 277487
# 292871
# 309858
# 326252
#
# Disc length: 4569 seconds
#
# Revision: 0
# Processed by: cddbd v1.5.2PL0 Copyright (c) Steve Scherf et al.
# Submitted via: RipIT 4.0.0-beta20140508 www.suwald.com/ripit/ripit.html on 2019-12-25 at 11:32
#
DISCID=4e11d716
DTITLE=Ray Charles - Essential Original Albums
DYEAR=2016
DGENRE=Blues
TTITLE0=From The Heart
TTITLE1=I've Got News For You
TTITLE2=Moanin'
TTITLE3=Let's Go
TTITLE4=One Mint Julep
TTITLE5=I'm Gonna Move To The Outskirts Of Town
TTITLE6=Stompin' Room Only
TTITLE7=Mister C
TTITLE8=Strike Up The Band
TTITLE9=Birth Of The Blues
TTITLE10=Let The Good Times Roll
TTITLE11=It Had To Be You
TTITLE12=Alexander's Ragtime Band
TTITLE13=Two years Of Torture
TTITLE14=When Your Lover Has Gone
TTITLE15=Deed I Do
TTITLE16=Just For A Thrill
TTITLE17=You Won't Let Me Go
TTITLE18=Tell Me You'll Wait For Me
TTITLE19=Don't Let The Sun Catch Your Cryin'
TTITLE20=Am I Blue
TTITLE21=Come Rain Or Come Shine
EXTD=
EXTT0=
EXTT1=
EXTT2=
EXTT3=
EXTT4=
EXTT5=
EXTT6=
EXTT7=
EXTT8=
EXTT9=
EXTT10=
EXTT11=
EXTT12=
EXTT13=
EXTT14=
EXTT15=
EXTT16=
EXTT17=
EXTT18=
EXTT19=
EXTT20=
EXTT21=
PLAYORDER=
